<?xml version="1.0" encoding="iso-8859-1"?>
<!-- Generator: Adobe Illustrator 19.0.0, SVG Export Plug-In . SVG Version: 6.00 Build 0)  -->
<svg version="1.1" id="Capa_1" xmlns="http://www.w3.org/2000/svg" xmlns:xlink="http://www.w3.org/1999/xlink" x="0px" y="0px"
	 viewBox="0 0 512 512" style="enable-background:new 0 0 512 512;" xml:space="preserve">
<rect x="61.625" y="186.959" transform="matrix(-0.7071 -0.7071 0.7071 -0.7071 258.3623 623.7933)" style="fill:#F6D83E;" width="393.496" height="142.859"/>
<rect x="61.628" y="224.59" transform="matrix(-0.7071 -0.7071 0.7071 -0.7071 258.3708 623.7897)" style="opacity:0.05;enable-background:new    ;" width="393.496" height="67.589"/>
<path style="fill:#EC8087;" d="M13.142,114.164l55.605,55.605L169.764,68.752l-55.605-55.605c-7.529-7.529-19.736-7.529-27.266,0
	L13.142,86.898C5.613,94.427,5.613,106.634,13.142,114.164z"/>
<g style="opacity:0.1;">
	<circle cx="40.938" cy="101.38" r="7.276"/>
	<circle cx="84.64" cy="60.61" r="7.276"/>
	<circle cx="82.21" cy="111.01" r="7.276"/>
</g>
<path style="fill:#F2DFA6;" d="M346.996,448.018l127.842,54.705c17.615,7.538,35.417-10.265,27.88-27.88l-54.705-127.842
	L346.996,448.018z"/>
<path style="fill:#394049;" d="M502.718,474.844l-19.443-45.438L429.4,483.28l45.438,19.444
	C492.453,510.261,510.256,492.458,502.718,474.844z"/>
<rect x="109.652" y="71.02" transform="matrix(-0.7071 -0.7071 0.7071 -0.7071 142.4446 343.901)" style="fill:#F4AC3B;" width="65.589" height="142.859"/>
<path style="opacity:0.1;enable-background:new    ;" d="M503.841,478.142c-0.279-1.096-0.651-2.198-1.122-3.299l-19.443-45.438
	l-35.262-82.404l-231.87-231.869l-46.38-46.38l-55.605-55.605c-7.529-7.529-19.736-7.529-27.265,0l-9.439,9.439
	c6.866-2.585,14.907-1.131,20.432,4.395l55.605,55.605l46.38,46.38L413.06,342.155c12.34,12.34,22.208,26.924,29.073,42.968
	l24.869,58.117l19.444,45.438c0.471,1.101,0.843,2.203,1.122,3.299c1.086,4.262,0.766,8.44-0.586,12.17
	c1.609-0.296,3.163-0.771,4.634-1.419c0.376-0.165,0.745-0.343,1.109-0.53c0.4-0.205,0.793-0.421,1.179-0.65
	c0.568-0.337,1.121-0.698,1.656-1.086c0.198-0.144,0.396-0.288,0.59-0.438c0.696-0.541,1.362-1.119,1.988-1.74
	c0.024-0.024,0.05-0.045,0.074-0.069C503.207,493.219,505.796,485.815,503.841,478.142z"/>
<path d="M509.613,471.893l-19.383-45.297c-0.005-0.013-0.012-0.027-0.017-0.04l-35.246-82.367c-0.004-0.01-0.009-0.02-0.013-0.03
	l-0.046-0.108c-0.027-0.064-0.062-0.124-0.091-0.187c-0.065-0.141-0.129-0.282-0.204-0.42c-0.046-0.085-0.098-0.166-0.147-0.249
	c-0.073-0.123-0.143-0.247-0.224-0.367c-0.072-0.108-0.153-0.21-0.23-0.314c-0.067-0.089-0.129-0.181-0.2-0.268
	c-0.156-0.19-0.321-0.374-0.496-0.549L198.261,86.643c-0.001-0.001-0.003-0.003-0.004-0.004c-0.001-0.002-0.003-0.003-0.004-0.004
	l-35.924-35.924c-2.929-2.929-7.678-2.929-10.607,0s-2.929,7.678,0,10.607l7.435,7.435l-90.41,90.41L18.445,108.86
	c-4.593-4.593-4.593-12.066,0-16.659L92.196,18.45c4.593-4.593,12.066-4.593,16.659,0l20.522,20.522
	c2.929,2.929,7.678,2.929,10.607,0s2.929-7.678,0-10.606L119.462,7.844C114.404,2.786,107.678,0,100.526,0
	C93.372,0,86.648,2.786,81.59,7.844L7.839,81.595c-10.441,10.441-10.441,27.431,0,37.872l78.793,78.793
	c0.001,0.001,0.001,0.002,0.002,0.002c0.001,0.001,0.002,0.001,0.002,0.002l67.628,67.628c1.464,1.465,3.384,2.197,5.303,2.197
	c1.919,0,3.839-0.732,5.303-2.197c2.929-2.929,2.929-7.678,0-10.607l-39.137-39.137l16.006-16.006l221.263,221.263l-16.005,16.005
	L189.296,279.711c-2.929-2.929-7.678-2.929-10.607,0s-2.929,7.678,0,10.607l163.004,163.004c0.174,0.174,0.357,0.338,0.546,0.494
	c0.097,0.08,0.199,0.15,0.299,0.224c0.094,0.069,0.185,0.142,0.282,0.207c0.127,0.086,0.258,0.161,0.389,0.237
	c0.076,0.044,0.149,0.092,0.227,0.134c0.14,0.076,0.284,0.142,0.428,0.208c0.061,0.028,0.119,0.061,0.181,0.088l0.107,0.046
	c0.01,0.004,0.021,0.009,0.031,0.013l82.366,35.245c0.014,0.006,0.027,0.012,0.041,0.018l45.297,19.383
	c1.438,0.615,2.917,1.119,4.399,1.496c2.312,0.589,4.666,0.885,7.008,0.885c0.569,0,1.139-0.018,1.706-0.053
	c0.119-0.007,0.236-0.016,0.361-0.028c2.458-0.182,4.903-0.698,7.267-1.532c0.5-0.176,0.993-0.367,1.479-0.57
	c0.674-0.281,1.345-0.591,1.995-0.922c7.556-3.85,13.215-11.019,15.139-19.18c0.212-0.902,0.369-1.72,0.48-2.502
	C512.443,482.1,511.714,476.803,509.613,471.893z M79.353,169.769l90.41-90.41l12.584,12.584l-90.41,90.41L79.353,169.769z
	 M115.127,205.543l-12.584-12.584l90.41-90.41l12.584,12.584L115.127,205.543z M152.345,189.537l37.186-37.186l152.159,152.16
	c1.464,1.465,3.384,2.197,5.303,2.197s3.839-0.732,5.303-2.197c2.929-2.929,2.929-7.678,0-10.607l-152.159-152.16l16.005-16.005
	l221.263,221.262l-16.006,16.006l-47.063-47.063c-2.929-2.929-7.678-2.929-10.607,0s-2.929,7.678,0,10.607l47.063,47.063
	L373.608,410.8L152.345,189.537z M360.137,445.483l85.341-85.341l28.905,67.548l-46.698,46.698L360.137,445.483z M496.868,485.111
	c-0.046,0.328-0.121,0.711-0.228,1.165c-0.924,3.92-3.671,7.379-7.349,9.253c-0.312,0.159-0.629,0.305-0.954,0.441
	c-0.229,0.095-0.46,0.185-0.698,0.27c-1.124,0.397-2.273,0.64-3.436,0.723c-0.033,0.002-0.11,0.009-0.175,0.015
	c-1.342,0.075-2.701-0.06-4.039-0.399c-0.732-0.187-1.472-0.439-2.2-0.751l-35.248-15.083l38.199-38.199l15.083,35.248
	C496.86,480.218,497.212,482.681,496.868,485.111z"/>
<g>
</g>
<g>
</g>
<g>
</g>
<g>
</g>
<g>
</g>
<g>
</g>
<g>
</g>
<g>
</g>
<g>
</g>
<g>
</g>
<g>
</g>
<g>
</g>
<g>
</g>
<g>
</g>
<g>
</g>
</svg>
